<svg width="63" height="43" viewBox="0 0 63 43" fill="none" xmlns="http://www.w3.org/2000/svg">
<path opacity="0.4" d="M21.7777 19.01C25.6977 21.53 27.6577 24.96 27.6577 29.3C27.6577 33.5 26.3977 36.86 23.8777 39.38C21.3577 41.76 18.2077 42.95 14.4277 42.95C10.6477 42.95 7.4277 41.76 4.7677 39.38C2.2477 37 0.987695 33.92 0.987695 30.14C0.987695 26.22 2.2477 22.44 4.7677 18.8L17.1577 0.949991H29.9677L21.7777 19.01ZM53.9077 19.01C57.8277 21.53 59.7877 24.96 59.7877 29.3C59.7877 33.5 58.5277 36.86 56.0077 39.38C53.4877 41.76 50.3377 42.95 46.5577 42.95C42.7777 42.95 39.5577 41.76 36.8977 39.38C34.3777 37 33.1177 33.92 33.1177 30.14C33.1177 26.22 34.3777 22.44 36.8977 18.8L49.2877 0.949991H62.0977L53.9077 19.01Z" fill="white"/>
</svg>
